<?xml version="1.0" encoding="UTF-8" standalone="no"?>
<!DOCTYPE svg PUBLIC "-//W3C//DTD SVG 1.1//EN"
 "http://www.w3.org/Graphics/SVG/1.1/DTD/svg11.dtd">
<!-- Generated by graphviz version 10.0.1 (20240210.2158)
 -->
<!-- Title: workflow Pages: 1 -->
<svg width="518pt" height="764pt"
 viewBox="0.00 0.00 518.30 764.00" xmlns="http://www.w3.org/2000/svg" xmlns:xlink="http://www.w3.org/1999/xlink">
<g id="graph0" class="graph" transform="scale(1 1) rotate(0) translate(4 760)">
<title>workflow</title>
<polygon fill="white" stroke="none" points="-4,4 -4,-760 514.3,-760 514.3,4 -4,4"/>
<!-- N -->
<g id="node1" class="node">
<title>N</title>
<ellipse fill="none" stroke="black" cx="128.63" cy="-738" rx="92.3" ry="18"/>
<text text-anchor="middle" x="128.63" y="-733.8" font-family="Times,serif" font-size="14.00">N species with genes</text>
</g>
<!-- Catalog -->
<g id="node3" class="node">
<title>Catalog</title>
<ellipse fill="none" stroke="black" cx="236.63" cy="-666" rx="78.88" ry="18"/>
<text text-anchor="middle" x="236.63" y="-661.8" font-family="Times,serif" font-size="14.00">Database Catalog</text>
</g>
<!-- N&#45;&gt;Catalog -->
<g id="edge1" class="edge">
<title>N&#45;&gt;Catalog</title>
<path fill="none" stroke="black" d="M154.22,-720.41C168.48,-711.17 186.43,-699.54 201.93,-689.49"/>
<polygon fill="black" stroke="black" points="203.46,-692.67 209.95,-684.29 199.65,-686.8 203.46,-692.67"/>
</g>
<!-- M -->
<g id="node2" class="node">
<title>M</title>
<ellipse fill="none" stroke="black" cx="345.63" cy="-738" rx="106.25" ry="18"/>
<text text-anchor="middle" x="345.63" y="-733.8" font-family="Times,serif" font-size="14.00">M species with genomes</text>
</g>
<!-- M&#45;&gt;Catalog -->
<g id="edge2" class="edge">
<title>M&#45;&gt;Catalog</title>
<path fill="none" stroke="black" d="M319.52,-720.23C305.12,-710.99 287.06,-699.39 271.47,-689.38"/>
<polygon fill="black" stroke="black" points="273.72,-686.66 263.42,-684.21 269.94,-692.56 273.72,-686.66"/>
</g>
<!-- Parse -->
<g id="node4" class="node">
<title>Parse</title>
<ellipse fill="none" stroke="black" cx="236.63" cy="-594" rx="64.4" ry="18"/>
<text text-anchor="middle" x="236.63" y="-589.8" font-family="Times,serif" font-size="14.00">Parse Catalog</text>
</g>
<!-- Catalog&#45;&gt;Parse -->
<g id="edge3" class="edge">
<title>Catalog&#45;&gt;Parse</title>
<path fill="none" stroke="black" d="M236.63,-647.7C236.63,-640.41 236.63,-631.73 236.63,-623.54"/>
<polygon fill="black" stroke="black" points="240.13,-623.62 236.63,-613.62 233.13,-623.62 240.13,-623.62"/>
</g>
<!-- Relabel -->
<g id="node5" class="node">
<title>Relabel</title>
<ellipse fill="none" stroke="black" cx="104.63" cy="-522" rx="104.63" ry="18"/>
<text text-anchor="middle" x="104.63" y="-517.8" font-family="Times,serif" font-size="14.00">Relabel Genes (N tasks)</text>
</g>
<!-- Parse&#45;&gt;Relabel -->
<g id="edge4" class="edge">
<title>Parse&#45;&gt;Relabel</title>
<path fill="none" stroke="black" d="M207.66,-577.64C189.56,-568.04 165.98,-555.53 145.94,-544.91"/>
<polygon fill="black" stroke="black" points="147.64,-541.85 137.17,-540.26 144.36,-548.03 147.64,-541.85"/>
</g>
<!-- Find_ORF -->
<g id="node7" class="node">
<title>Find_ORF</title>
<ellipse fill="none" stroke="black" cx="368.63" cy="-522" rx="141.68" ry="18"/>
<text text-anchor="middle" x="368.63" y="-517.8" font-family="Times,serif" font-size="14.00">Find ORFs in Genomes (M tasks)</text>
</g>
<!-- Parse&#45;&gt;Find_ORF -->
<g id="edge5" class="edge">
<title>Parse&#45;&gt;Find_ORF</title>
<path fill="none" stroke="black" d="M265.59,-577.64C283.56,-568.11 306.94,-555.71 326.88,-545.14"/>
<polygon fill="black" stroke="black" points="328.42,-548.28 335.62,-540.5 325.14,-542.1 328.42,-548.28"/>
</g>
<!-- Build_BLAST -->
<g id="node6" class="node">
<title>Build_BLAST</title>
<ellipse fill="none" stroke="black" cx="236.63" cy="-450" rx="103.3" ry="18"/>
<text text-anchor="middle" x="236.63" y="-445.8" font-family="Times,serif" font-size="14.00">Build BLAST Database</text>
</g>
<!-- Relabel&#45;&gt;Build_BLAST -->
<g id="edge6" class="edge">
<title>Relabel&#45;&gt;Build_BLAST</title>
<path fill="none" stroke="black" d="M135.91,-504.41C153.74,-494.95 176.31,-482.99 195.56,-472.78"/>
<polygon fill="black" stroke="black" points="197.04,-475.96 204.23,-468.18 193.76,-469.77 197.04,-475.96"/>
</g>
<!-- Search -->
<g id="node8" class="node">
<title>Search</title>
<ellipse fill="none" stroke="black" cx="236.63" cy="-378" rx="208.49" ry="18"/>
<text text-anchor="middle" x="236.63" y="-373.8" font-family="Times,serif" font-size="14.00">Search BLAST Database for Matches (N+M tasks)</text>
</g>
<!-- Build_BLAST&#45;&gt;Search -->
<g id="edge8" class="edge">
<title>Build_BLAST&#45;&gt;Search</title>
<path fill="none" stroke="black" d="M236.63,-431.7C236.63,-424.41 236.63,-415.73 236.63,-407.54"/>
<polygon fill="black" stroke="black" points="240.13,-407.62 236.63,-397.62 233.13,-407.62 240.13,-407.62"/>
</g>
<!-- Find_ORF&#45;&gt;Build_BLAST -->
<g id="edge7" class="edge">
<title>Find_ORF&#45;&gt;Build_BLAST</title>
<path fill="none" stroke="black" d="M336.67,-504.05C319.03,-494.7 296.92,-482.98 277.98,-472.93"/>
<polygon fill="black" stroke="black" points="279.64,-469.85 269.17,-468.26 276.36,-476.03 279.64,-469.85"/>
</g>
<!-- Group -->
<g id="node9" class="node">
<title>Group</title>
<ellipse fill="none" stroke="black" cx="236.63" cy="-306" rx="143.81" ry="18"/>
<text text-anchor="middle" x="236.63" y="-301.8" font-family="Times,serif" font-size="14.00">Group Sequences using DBSCAN</text>
</g>
<!-- Search&#45;&gt;Group -->
<g id="edge9" class="edge">
<title>Search&#45;&gt;Group</title>
<path fill="none" stroke="black" d="M236.63,-359.7C236.63,-352.41 236.63,-343.73 236.63,-335.54"/>
<polygon fill="black" stroke="black" points="240.13,-335.62 236.63,-325.62 233.13,-335.62 240.13,-335.62"/>
</g>
<!-- Select -->
<g id="node10" class="node">
<title>Select</title>
<ellipse fill="none" stroke="black" cx="236.63" cy="-234" rx="98.73" ry="18"/>
<text text-anchor="middle" x="236.63" y="-229.8" font-family="Times,serif" font-size="14.00">Select Genes (X tasks)</text>
</g>
<!-- Group&#45;&gt;Select -->
<g id="edge10" class="edge">
<title>Group&#45;&gt;Select</title>
<path fill="none" stroke="black" d="M236.63,-287.7C236.63,-280.41 236.63,-271.73 236.63,-263.54"/>
<polygon fill="black" stroke="black" points="240.13,-263.62 236.63,-253.62 233.13,-263.62 240.13,-263.62"/>
</g>
<!-- Align -->
<g id="node11" class="node">
<title>Align</title>
<ellipse fill="none" stroke="black" cx="236.63" cy="-162" rx="164.98" ry="18"/>
<text text-anchor="middle" x="236.63" y="-157.8" font-family="Times,serif" font-size="14.00">Multiple Sequence Alignment (X tasks)</text>
</g>
<!-- Select&#45;&gt;Align -->
<g id="edge11" class="edge">
<title>Select&#45;&gt;Align</title>
<path fill="none" stroke="black" d="M236.63,-215.7C236.63,-208.41 236.63,-199.73 236.63,-191.54"/>
<polygon fill="black" stroke="black" points="240.13,-191.62 236.63,-181.62 233.13,-191.62 240.13,-191.62"/>
</g>
<!-- Tree -->
<g id="node12" class="node">
<title>Tree</title>
<ellipse fill="none" stroke="black" cx="236.63" cy="-90" rx="120.43" ry="18"/>
<text text-anchor="middle" x="236.63" y="-85.8" font-family="Times,serif" font-size="14.00">Create Gene Trees (X tasks)</text>
</g>
<!-- Align&#45;&gt;Tree -->
<g id="edge12" class="edge">
<title>Align&#45;&gt;Tree</title>
<path fill="none" stroke="black" d="M236.63,-143.7C236.63,-136.41 236.63,-127.73 236.63,-119.54"/>
<polygon fill="black" stroke="black" points="240.13,-119.62 236.63,-109.62 233.13,-119.62 240.13,-119.62"/>
</g>
<!-- Species_Tree -->
<g id="node13" class="node">
<title>Species_Tree</title>
<ellipse fill="none" stroke="black" cx="236.63" cy="-18" rx="88.25" ry="18"/>
<text text-anchor="middle" x="236.63" y="-13.8" font-family="Times,serif" font-size="14.00">Create Species Tree</text>
</g>
<!-- Tree&#45;&gt;Species_Tree -->
<g id="edge13" class="edge">
<title>Tree&#45;&gt;Species_Tree</title>
<path fill="none" stroke="black" d="M236.63,-71.7C236.63,-64.41 236.63,-55.73 236.63,-47.54"/>
<polygon fill="black" stroke="black" points="240.13,-47.62 236.63,-37.62 233.13,-47.62 240.13,-47.62"/>
</g>
</g>
</svg>
